<svg width="12" height="12" viewBox="0 0 12 12" fill="none" xmlns="http://www.w3.org/2000/svg">
<path d="M3 2.375C3 2.03 3.28 1.75 3.625 1.75H6.125C6.55958 1.75033 6.98575 1.86985 7.35713 2.09555C7.72851 2.32124 8.03087 2.64447 8.23132 3.03006C8.43178 3.41566 8.52263 3.84884 8.49401 4.28248C8.46539 4.71612 8.31839 5.1336 8.069 5.4895C8.58265 5.73213 8.99835 6.14246 9.24764 6.6529C9.49693 7.16335 9.56495 7.74348 9.44048 8.29775C9.31602 8.85202 9.0065 9.34737 8.5629 9.70223C8.1193 10.0571 7.56807 10.2503 7 10.25H3.625C3.28 10.25 3 9.97 3 9.625V2.375ZM4.25 6.5V9H7C7.33152 9 7.64946 8.8683 7.88388 8.63388C8.1183 8.39946 8.25 8.08152 8.25 7.75C8.25 7.41848 8.1183 7.10054 7.88388 6.86612C7.64946 6.6317 7.33152 6.5 7 6.5H4.25ZM4.25 5.25H6.1255C6.42387 5.24993 6.70999 5.13134 6.92092 4.92032C7.13185 4.70929 7.25032 4.42312 7.25025 4.12475C7.25018 3.82638 7.13159 3.54026 6.92057 3.32933C6.70954 3.1184 6.42337 2.99993 6.125 3H4.25V5.25Z" fill="black"/>
</svg>
