<svg width="24" height="24" viewBox="0 0 24 24" fill="none" xmlns="http://www.w3.org/2000/svg">
<path d="M20.829 12.861C21 12.448 21 11.923 21 10.875C21 9.827 21 9.302 20.829 8.889C20.7159 8.61593 20.5502 8.36782 20.3412 8.15883C20.1322 7.94984 19.8841 7.78407 19.611 7.671C19.198 7.5 18.673 7.5 17.625 7.5H11.1C9.84 7.5 9.21 7.5 8.729 7.745C8.30526 7.96078 7.96078 8.30526 7.745 8.729C7.5 9.209 7.5 9.839 7.5 11.1V17.625C7.5 18.673 7.5 19.198 7.671 19.611C7.9 20.162 8.338 20.601 8.889 20.829C9.302 21 9.827 21 10.875 21C11.923 21 12.448 21 12.861 20.829M20.829 12.861C20.7159 13.1341 20.5502 13.3822 20.3412 13.5912C20.1322 13.8002 19.8841 13.9659 19.611 14.079C19.198 14.25 18.673 14.25 17.625 14.25C16.577 14.25 16.052 14.25 15.639 14.421C15.3659 14.5341 15.1178 14.6998 14.9088 14.9088C14.6998 15.1178 14.5341 15.3659 14.421 15.639C14.25 16.052 14.25 16.577 14.25 17.625C14.25 18.673 14.25 19.198 14.079 19.611C13.9659 19.8841 13.8002 20.1322 13.5912 20.3412C13.3822 20.5502 13.1341 20.7159 12.861 20.829M20.829 12.861C20.2912 14.716 19.3017 16.4086 17.9492 17.7873C16.5967 19.166 14.9233 20.1878 13.079 20.761L12.861 20.829M16.5 7.5V6.6C16.5 5.34 16.5 4.71 16.255 4.229C16.0395 3.80541 15.6954 3.46095 15.272 3.245C14.79 3 14.16 3 12.9 3H6.6C5.34 3 4.71 3 4.229 3.245C3.80526 3.46078 3.46078 3.80526 3.245 4.229C3 4.709 3 5.339 3 6.6V12.9C3 14.16 3 14.79 3.245 15.271C3.461 15.695 3.805 16.039 4.229 16.255C4.709 16.5 5.34 16.5 6.601 16.5H7.5" stroke="black" stroke-width="1.5" stroke-linecap="round" stroke-linejoin="round"/>
</svg>
