<svg width="19" height="16" viewBox="0 0 19 16" fill="none" xmlns="http://www.w3.org/2000/svg">
<path d="M4.23663 6.17303C2.38052 6.61445 1 8.28321 1 10.2744C1 12.6026 2.8874 14.49 5.21563 14.49C5.61501 14.49 6.00142 14.4345 6.36755 14.3307" stroke="#6E6E6E" stroke-width="1.5" stroke-linecap="round" stroke-linejoin="round"/>
<path d="M14.5132 6.17303C16.3694 6.61445 17.7499 8.28321 17.7499 10.2744C17.7499 12.6026 15.8625 14.49 13.5342 14.49C13.1349 14.49 12.7485 14.4345 12.3823 14.3307" stroke="#6E6E6E" stroke-width="1.5" stroke-linecap="round" stroke-linejoin="round"/>
<path d="M14.4901 6.05875C14.4901 3.26489 12.2252 1 9.43131 1C6.63745 1 4.37256 3.26489 4.37256 6.05875" stroke="#6E6E6E" stroke-width="1.5" stroke-linecap="round" stroke-linejoin="round"/>
<path d="M6.50781 9.38122L9.43114 6.44824L12.4377 9.43139" stroke="#6E6E6E" stroke-width="1.5" stroke-linecap="round" stroke-linejoin="round"/>
<path d="M9.4314 13.6469V7.9397" stroke="#6E6E6E" stroke-width="1.5" stroke-linecap="round" stroke-linejoin="round"/>
</svg>
