<svg width="12" height="12" viewBox="0 0 12 12" fill="none" xmlns="http://www.w3.org/2000/svg">
<path fill-rule="evenodd" clip-rule="evenodd" d="M4.875 1.5C4.72582 1.5 4.58274 1.55926 4.47725 1.66475C4.37176 1.77024 4.3125 1.91332 4.3125 2.0625C4.3125 2.21168 4.37176 2.35476 4.47725 2.46025C4.58274 2.56574 4.72582 2.625 4.875 2.625H6.3225L4.5135 9.375H3C2.85082 9.375 2.70774 9.43426 2.60225 9.53975C2.49676 9.64524 2.4375 9.78832 2.4375 9.9375C2.4375 10.0867 2.49676 10.2298 2.60225 10.3352C2.70774 10.4407 2.85082 10.5 3 10.5H7.125C7.27418 10.5 7.41726 10.4407 7.52275 10.3352C7.62824 10.2298 7.6875 10.0867 7.6875 9.9375C7.6875 9.78832 7.62824 9.64524 7.52275 9.53975C7.41726 9.43426 7.27418 9.375 7.125 9.375H5.6775L7.4865 2.625H9C9.14918 2.625 9.29226 2.56574 9.39775 2.46025C9.50324 2.35476 9.5625 2.21168 9.5625 2.0625C9.5625 1.91332 9.50324 1.77024 9.39775 1.66475C9.29226 1.55926 9.14918 1.5 9 1.5H4.875Z" fill="black"/>
</svg>
