<svg width="23" height="21" viewBox="0 0 23 21" fill="none" xmlns="http://www.w3.org/2000/svg">
<path fill-rule="evenodd" clip-rule="evenodd" d="M17 2H6C3.79086 2 2 3.79086 2 6V15C2 17.2091 3.79086 19 6 19H21V6C21 3.79086 19.2091 2 17 2ZM6 0C2.68629 0 0 2.68629 0 6V15C0 18.3137 2.68629 21 6 21H21H23V19V6C23 2.68629 20.3137 0 17 0H6ZM10 10C10 11.1046 9.10457 12 8 12C6.89543 12 6 11.1046 6 10C6 8.89543 6.89543 8 8 8C9.10457 8 10 8.89543 10 10ZM15 12C16.1046 12 17 11.1046 17 10C17 8.89543 16.1046 8 15 8C13.8954 8 13 8.89543 13 10C13 11.1046 13.8954 12 15 12Z" fill="black"/>
</svg>
