<svg width="17" height="19" viewBox="0 0 17 19" fill="none" xmlns="http://www.w3.org/2000/svg">
<mask id="path-1-outside-1_28_2" maskUnits="userSpaceOnUse" x="0" y="0" width="17" height="19" fill="black">
<rect fill="white" width="17" height="19"/>
<path fill-rule="evenodd" clip-rule="evenodd" d="M13 7C14.6569 7 16 5.65685 16 4C16 2.34315 14.6569 1 13 1C11.3431 1 10 2.34315 10 4C10 4.22795 10.0254 4.44995 10.0736 4.66334L6.14852 6.90623C5.60362 6.34717 4.84235 6 4 6C2.34315 6 1 7.34315 1 9C1 10.6569 2.34315 12 4 12C4.71876 12 5.37848 11.7472 5.89513 11.3257L10.042 14.4969C10.0144 14.6605 10 14.8286 10 15C10 16.6569 11.3431 18 13 18C14.6569 18 16 16.6569 16 15C16 13.3431 14.6569 12 13 12C12.2468 12 11.5585 12.2775 11.0317 12.7359L6.93875 9.60605C6.97891 9.41031 7 9.20762 7 9C7 8.90901 6.99595 8.81896 6.98802 8.73003L11.1426 6.35599C11.6534 6.7593 12.2986 7 13 7Z"/>
</mask>
<path fill-rule="evenodd" clip-rule="evenodd" d="M13 7C14.6569 7 16 5.65685 16 4C16 2.34315 14.6569 1 13 1C11.3431 1 10 2.34315 10 4C10 4.22795 10.0254 4.44995 10.0736 4.66334L6.14852 6.90623C5.60362 6.34717 4.84235 6 4 6C2.34315 6 1 7.34315 1 9C1 10.6569 2.34315 12 4 12C4.71876 12 5.37848 11.7472 5.89513 11.3257L10.042 14.4969C10.0144 14.6605 10 14.8286 10 15C10 16.6569 11.3431 18 13 18C14.6569 18 16 16.6569 16 15C16 13.3431 14.6569 12 13 12C12.2468 12 11.5585 12.2775 11.0317 12.7359L6.93875 9.60605C6.97891 9.41031 7 9.20762 7 9C7 8.90901 6.99595 8.81896 6.98802 8.73003L11.1426 6.35599C11.6534 6.7593 12.2986 7 13 7Z" fill="white"/>
<path d="M10.0736 4.66334L10.1976 4.8804C10.293 4.82589 10.3416 4.71548 10.3175 4.6083L10.0736 4.66334ZM6.14852 6.90623L5.96949 7.08073C6.04902 7.16232 6.17364 7.17982 6.27256 7.1233L6.14852 6.90623ZM5.89513 11.3257L6.04699 11.1271C5.95502 11.0568 5.8268 11.0588 5.73709 11.132L5.89513 11.3257ZM10.042 14.4969L10.2885 14.5385C10.304 14.4471 10.2675 14.3546 10.1939 14.2983L10.042 14.4969ZM11.0317 12.7359L10.8798 12.9345C10.9741 13.0067 11.1062 13.0025 11.1958 12.9245L11.0317 12.7359ZM6.93875 9.60605L6.69385 9.55581C6.67459 9.64973 6.71073 9.7464 6.78689 9.80464L6.93875 9.60605ZM6.98802 8.73003L6.86398 8.51297C6.77914 8.56145 6.73033 8.65491 6.73901 8.75224L6.98802 8.73003ZM11.1426 6.35599L11.2975 6.15977C11.2175 6.09659 11.1071 6.08834 11.0185 6.13893L11.1426 6.35599ZM15.75 4C15.75 5.51878 14.5188 6.75 13 6.75V7.25C14.7949 7.25 16.25 5.79493 16.25 4H15.75ZM13 1.25C14.5188 1.25 15.75 2.48122 15.75 4H16.25C16.25 2.20507 14.7949 0.75 13 0.75V1.25ZM10.25 4C10.25 2.48122 11.4812 1.25 13 1.25V0.75C11.2051 0.75 9.75 2.20507 9.75 4H10.25ZM10.3175 4.6083C10.2733 4.41285 10.25 4.2093 10.25 4H9.75C9.75 4.24659 9.77751 4.48705 9.82972 4.71839L10.3175 4.6083ZM6.27256 7.1233L10.1976 4.8804L9.94955 4.44628L6.02449 6.68917L6.27256 7.1233ZM4 6.25C4.77221 6.25 5.46971 6.56795 5.96949 7.08073L6.32755 6.73174C5.73754 6.12639 4.9125 5.75 4 5.75V6.25ZM1.25 9C1.25 7.48122 2.48122 6.25 4 6.25V5.75C2.20507 5.75 0.75 7.20507 0.75 9H1.25ZM4 11.75C2.48122 11.75 1.25 10.5188 1.25 9H0.75C0.75 10.7949 2.20507 12.25 4 12.25V11.75ZM5.73709 11.132C5.26343 11.5184 4.65909 11.75 4 11.75V12.25C4.77843 12.25 5.49353 11.976 6.05316 11.5195L5.73709 11.132ZM10.1939 14.2983L6.04699 11.1271L5.74326 11.5243L9.89014 14.6955L10.1939 14.2983ZM9.79549 14.4553C9.76556 14.6325 9.75 14.8146 9.75 15H10.25C10.25 14.8426 10.2632 14.6884 10.2885 14.5385L9.79549 14.4553ZM9.75 15C9.75 16.7949 11.2051 18.25 13 18.25V17.75C11.4812 17.75 10.25 16.5188 10.25 15H9.75ZM13 18.25C14.7949 18.25 16.25 16.7949 16.25 15H15.75C15.75 16.5188 14.5188 17.75 13 17.75V18.25ZM16.25 15C16.25 13.2051 14.7949 11.75 13 11.75V12.25C14.5188 12.25 15.75 13.4812 15.75 15H16.25ZM13 11.75C12.1843 11.75 11.4382 12.0509 10.8676 12.5473L11.1958 12.9245C11.6788 12.5042 12.3094 12.25 13 12.25V11.75ZM6.78689 9.80464L10.8798 12.9345L11.1835 12.5373L7.09062 9.40746L6.78689 9.80464ZM6.75 9C6.75 9.19065 6.73064 9.37651 6.69385 9.55581L7.18365 9.65629C7.22718 9.44411 7.25 9.22459 7.25 9H6.75ZM6.73901 8.75224C6.74628 8.83379 6.75 8.91643 6.75 9H7.25C7.25 8.90158 7.24562 8.80412 7.23703 8.70782L6.73901 8.75224ZM11.0185 6.13893L6.86398 8.51297L7.11205 8.94709L11.2666 6.57306L11.0185 6.13893ZM13 6.75C12.3568 6.75 11.7658 6.52949 11.2975 6.15977L10.9877 6.55222C11.5411 6.98911 12.2404 7.25 13 7.25V6.75Z" fill="white" mask="url(#path-1-outside-1_28_2)"/>
</svg>
