<svg width="26" height="26" viewBox="0 0 26 26" fill="none" xmlns="http://www.w3.org/2000/svg">
<path fill-rule="evenodd" clip-rule="evenodd" d="M19.5 11C19.5 15.6944 15.6944 19.5 11 19.5C6.30558 19.5 2.5 15.6944 2.5 11C2.5 6.30558 6.30558 2.5 11 2.5C15.6944 2.5 19.5 6.30558 19.5 11ZM17.9421 19.5331C16.0488 21.0754 13.6324 22 11 22C4.92487 22 0 17.0751 0 11C0 4.92487 4.92487 0 11 0C17.0751 0 22 4.92487 22 11C22 13.6324 21.0754 16.0488 19.5331 17.9421L24.7955 23.2045C25.2348 23.6438 25.2348 24.3562 24.7955 24.7955C24.3562 25.2348 23.6438 25.2348 23.2045 24.7955L17.9421 19.5331Z" fill="black"/>
</svg>
