<svg width="225" height="40" viewBox="0 0 225 40" fill="none" xmlns="http://www.w3.org/2000/svg">
<path d="M31.4167 17.3167L33.1833 15.55C34.4833 14.25 34.4833 12.1333 33.1833 10.8333L30.8333 8.48333C29.5333 7.18333 27.4167 7.18333 26.1167 8.48333L24.35 10.25L31.4167 17.3167ZM21.9833 12.6L14.5 20C14.5 20 14.5 20.2741 14.5 20.387C14.5 20.5 14.1172 20.387 14.1172 20.387L6.9 27.6833C6.7491 27.8399 6.66536 28.0492 6.66667 28.2667V34.1667C6.66667 34.6333 7.03333 35 7.5 35H13.4C13.6167 35 13.8333 34.9167 13.9833 34.75L17.7542 30.9792C17.7542 30.9792 19.5 32.5 21 30.5C22.5 28.5 21.525 27.2083 21.525 27.2083L29.0667 19.6667L21.9833 12.6ZM31.6667 29.1667C31.6667 32.8167 27.4333 35 23.3333 35C22.4167 35 21.6667 34.25 21.6667 33.3333C21.6667 32.4167 22.4167 31.6667 23.3333 31.6667C25.9 31.6667 28.3333 30.45 28.3333 29.1667C28.3333 28.3833 27.5333 27.7167 26.2833 27.1667L28.75 24.7C30.5333 25.75 31.6667 27.15 31.6667 29.1667ZM7.63333 22.25C6.01667 21.3167 5 20.1 5 18.3333C5 15.3333 8.21667 14.7167 11 13.5C12.7167 12.7333 15 10.9333 15 10C15 9.31667 13.7 8.33333 11.6667 8.33333C9.56667 8.33333 8.66667 9.35 8.61667 9.4C8.03333 10.0833 6.98333 10.1667 6.28333 9.6C5.94912 9.3255 5.73576 8.93097 5.68903 8.50101C5.64229 8.07105 5.7659 7.63989 6.03333 7.3C6.21667 7.06667 7.93333 5 11.6667 5C15.4 5 18.3333 7.2 18.3333 10C18.3333 13.1167 15.1167 14.5333 12.2667 15.7833C10.7 16.4667 8.33333 17.5 8.33333 18.3333C8.33333 18.85 9.05 19.3333 10.1167 19.7667L7.63333 22.25Z" fill="#002E59"/>
<path d="M224.291 21.4609C224.291 22.4805 224.221 23.5 224.08 24.5195C222.076 24.6484 220.084 24.8594 218.104 25.1523C216.123 25.4336 214.143 25.7148 212.162 25.9961C212.467 26.8398 212.941 27.5137 213.586 28.0176C214.242 28.5215 215.021 28.7734 215.924 28.7734C216.393 28.7734 216.902 28.6855 217.453 28.5098C218.016 28.334 218.572 28.1172 219.123 27.8594C219.674 27.5898 220.201 27.3027 220.705 26.998C221.209 26.6934 221.643 26.418 222.006 26.1719C222.006 26.1719 220.5 29.1641 220.5 31.1641C220.5 33.1641 221.162 34.1523 221.162 34.1523C220.705 34.5039 220.207 34.8027 219.668 35.0488C219.141 35.2949 218.59 35.4941 218.016 35.6465C217.441 35.7988 216.861 35.9102 216.275 35.9805C215.689 36.0508 215.115 36.0859 214.553 36.0859C213.393 36.0859 212.332 35.9277 211.371 35.6113C210.41 35.2949 209.537 34.8555 208.752 34.293C207.979 33.7188 207.299 33.0449 206.713 32.2715C206.127 31.498 205.641 30.6543 205.254 29.7402C204.867 28.8262 204.574 27.8594 204.375 26.8398C204.176 25.8203 204.076 24.7891 204.076 23.7461C204.076 22.6562 204.176 21.5664 204.375 20.4766C204.574 19.3867 204.873 18.3379 205.271 17.3301C205.682 16.3223 206.191 15.3906 206.801 14.5352C207.422 13.668 208.143 12.9121 208.963 12.2676C209.783 11.623 210.709 11.1191 211.74 10.7559C212.783 10.3926 213.932 10.2109 215.186 10.2109C216.229 10.2109 217.178 10.3574 218.033 10.6504C218.9 10.9316 219 12.6484 219.668 13.1641C220.348 13.668 221.602 12.9531 222.094 13.6562C222.598 14.3594 223.008 15.1328 223.324 15.9766C223.652 16.8086 223.893 17.6934 224.045 18.6309C224.209 19.5566 224.291 20.5 224.291 21.4609ZM217.26 20.5469C217.26 20.2188 217.225 19.8848 217.154 19.5449C217.084 19.1934 216.967 18.877 216.803 18.5957C216.65 18.3145 216.445 18.0859 216.188 17.9102C215.93 17.7227 215.607 17.6289 215.221 17.6289C214.752 17.6289 214.336 17.7578 213.973 18.0156C213.621 18.2617 213.316 18.5781 213.059 18.9648C212.801 19.3398 212.59 19.75 212.426 20.1953C212.262 20.6406 212.139 21.0508 212.057 21.4258L217.26 20.9336V20.5469Z" fill="#77BEFF"/>
<path d="M203.004 26.7695C203.004 28.0938 202.986 29.4062 202.951 30.707C202.928 31.9961 202.887 33.2969 202.828 34.6094C202.828 34.6094 201 32.6641 200 33.1641C199 33.6641 192.703 34.4336 192.703 34.4336C193.055 32.3594 193.359 30.291 193.617 28.2285C193.875 26.1543 194.004 24.0625 194.004 21.9531C194.004 21.8008 193.998 21.5547 193.986 21.2148C193.975 20.875 193.951 20.4941 193.916 20.0723C193.881 19.6387 193.828 19.1992 193.758 18.7539C193.699 18.2969 193.611 17.8809 193.494 17.5059C193.389 17.1309 193.254 16.8262 193.09 16.5918C192.938 16.3457 192.75 16.2227 192.527 16.2227C192.129 16.2227 191.789 16.3398 191.508 16.5742C191.238 16.8086 191.01 17.1133 190.822 17.4883C190.646 17.8516 190.506 18.2617 190.4 18.7188C190.295 19.1758 190.213 19.6328 190.154 20.0898C190.107 20.5469 190.072 20.9805 190.049 21.3906C190.037 21.7891 190.031 22.1172 190.031 22.375C189.973 24.4492 189.926 26.5117 189.891 28.5625C189.855 30.6016 189.809 32.6641 189.75 34.75C189.75 34.75 186 36.1641 185.5 33.6641C185 31.1641 180.785 35.1367 180.785 35.1367C181.02 31 181.242 26.8867 181.453 22.7969C181.676 18.707 181.852 14.5938 181.98 10.457L190.277 10.0352L190.207 12.8477C190.535 12.4492 190.887 12.0742 191.262 11.7227C191.648 11.3711 192.059 11.0723 192.492 10.8262C192.926 10.5684 193.383 10.3691 193.863 10.2285C194.355 10.0762 194.871 10 195.41 10C196.406 10 197.279 10.1641 198.029 10.4922C198.779 10.8203 199.424 11.2656 199.963 11.8281C200.502 12.3906 200.953 13.0586 201.316 13.832C201.68 14.5938 201.973 15.4082 202.195 16.2754C202.418 17.1426 202.588 18.0508 202.705 19C202.822 19.9375 202.898 20.8633 202.934 21.7773C202.98 22.6914 203.004 23.5762 203.004 24.4316C203.004 25.2871 203.004 26.0664 203.004 26.7695Z" fill="#77BEFF"/>
<path d="M179.52 26.7695C179.52 28.0938 179.502 29.4062 179.467 30.707C179.443 31.9961 179.402 33.2969 179.344 34.6094C179.344 34.6094 176 32.1641 174.5 33.6641C173 35.1641 169.219 34.4336 169.219 34.4336C169.57 32.3594 169.875 30.291 170.133 28.2285C170.391 26.1543 170.52 24.0625 170.52 21.9531C170.52 21.8008 170.514 21.5547 170.502 21.2148C170.49 20.875 170.467 20.4941 170.432 20.0723C170.396 19.6387 170.344 19.1992 170.273 18.7539C170.215 18.2969 170.127 17.8809 170.01 17.5059C169.904 17.1309 169.77 16.8262 169.605 16.5918C169.453 16.3457 169.266 16.2227 169.043 16.2227C168.645 16.2227 168.305 16.3398 168.023 16.5742C167.754 16.8086 167.525 17.1133 167.338 17.4883C167.162 17.8516 167.021 18.2617 166.916 18.7188C166.811 19.1758 166.729 19.6328 166.67 20.0898C166.623 20.5469 166.588 20.9805 166.564 21.3906C166.553 21.7891 166.547 22.1172 166.547 22.375C166.488 24.4492 166.441 26.5117 166.406 28.5625C166.371 30.6016 166.324 32.6641 166.266 34.75C166.266 34.75 164.5 34.1641 162 34.1641C159.5 34.1641 157.301 35.1367 157.301 35.1367C157.535 31 157.758 26.8867 157.969 22.7969C158.191 18.707 158.367 14.5938 158.496 10.457L166.793 10.0352L166.723 12.8477C167.051 12.4492 167.402 12.0742 167.777 11.7227C168.164 11.3711 168.574 11.0723 169.008 10.8262C169.441 10.5684 169.898 10.3691 170.379 10.2285C170.871 10.0762 171.387 10 171.926 10C172.922 10 173.795 10.1641 174.545 10.4922C175.295 10.8203 175.939 11.2656 176.479 11.8281C177.018 12.3906 177.469 13.0586 177.832 13.832C178.195 14.5938 178.488 15.4082 178.711 16.2754C178.934 17.1426 179.104 18.0508 179.221 19C179.338 19.9375 179.414 20.8633 179.449 21.7773C179.496 22.6914 179.52 23.5762 179.52 24.4316C179.52 25.2871 179.52 26.0664 179.52 26.7695Z" fill="#77BEFF"/>
<path d="M156.264 10.9141L155.033 34.8555C155.033 34.8555 153 34.6641 151.5 34.1641C150 33.6641 147.615 35.2422 147.615 35.2422L146.912 11.4062L156.264 10.9141Z" fill="#77BEFF"/>
<path d="M145.945 26.6641C145.945 28.2695 145.664 29.6582 145.102 30.8301C144.551 31.9902 143.789 32.9512 142.816 33.7129C141.855 34.4629 140.725 35.0195 139.424 35.3828C138.135 35.7344 136.746 35.9102 135.258 35.9102C134.684 35.9102 134.051 35.834 133.359 35.6816C132.68 35.5293 131.988 35.3418 131.285 35.1191C130.582 34.8848 129.902 34.6387 129.246 34.3809C128.602 34.1113 128.027 33.8594 127.523 33.625L128.297 26.7344C129.293 27.332 130.395 27.7891 131.602 28.1055C132.82 28.4102 134.016 28.5625 135.188 28.5625C135.41 28.5625 135.68 28.5566 135.996 28.5449C136.312 28.5215 136.611 28.4688 136.893 28.3867C137.186 28.293 137.432 28.1582 137.631 27.9824C137.83 27.8066 137.93 27.5547 137.93 27.2266C137.93 27.0039 137.859 26.8164 137.719 26.6641C137.578 26.5 137.396 26.3711 137.174 26.2773C136.951 26.1719 136.699 26.0957 136.418 26.0488C136.137 25.9902 135.861 25.9492 135.592 25.9258C135.322 25.9023 135.07 25.8906 134.836 25.8906C134.602 25.8906 134.414 25.8906 134.273 25.8906C133.266 25.8906 132.346 25.7324 131.514 25.416C130.693 25.0996 129.984 24.6543 129.387 24.0801C128.801 23.4941 128.344 22.791 128.016 21.9707C127.688 21.1387 127.523 20.2188 127.523 19.2109C127.523 17.8281 127.799 16.5918 128.35 15.502C128.912 14.4004 129.656 13.4688 130.582 12.707C131.52 11.9336 132.592 11.3418 133.799 10.9316C135.006 10.5215 136.254 10.3164 137.543 10.3164C138.117 10.3164 138.709 10.3398 139.318 10.3867C139.928 10.4219 140.531 10.4922 141.129 10.5977C141.738 10.7031 142.33 10.8379 142.904 11.002C143.479 11.166 144.023 11.3711 144.539 11.6172L143.871 18.7539C143.074 18.4844 142.236 18.2617 141.357 18.0859C140.49 17.8984 139.641 17.8047 138.809 17.8047C138.656 17.8047 138.457 17.8105 138.211 17.8223C137.977 17.8223 137.725 17.8398 137.455 17.875C137.197 17.8984 136.934 17.9395 136.664 17.998C136.395 18.0566 136.154 18.1387 135.943 18.2441C135.732 18.3379 135.562 18.4668 135.434 18.6309C135.305 18.7949 135.246 18.9883 135.258 19.2109C135.27 19.4688 135.363 19.668 135.539 19.8086C135.727 19.9492 135.961 20.0547 136.242 20.125C136.535 20.1836 136.852 20.2129 137.191 20.2129C137.543 20.2129 137.889 20.207 138.229 20.1953C138.568 20.1719 138.885 20.1543 139.178 20.1426C139.471 20.1191 139.711 20.1133 139.898 20.125C140.836 20.1836 141.68 20.3828 142.43 20.7227C143.18 21.0625 143.812 21.5137 144.328 22.0762C144.855 22.6387 145.254 23.3125 145.523 24.0977C145.805 24.8711 145.945 25.7266 145.945 26.6641Z" fill="#77BEFF"/>
<path d="M126.768 21.4609C126.768 22.4805 126.697 23.5 126.557 24.5195C124.553 24.6484 122.561 24.8594 120.58 25.1523C118.6 25.4336 116.619 25.7148 114.639 25.9961C114.943 26.8398 115.418 27.5137 116.062 28.0176C116.719 28.5215 117.498 28.7734 118.4 28.7734C118.869 28.7734 119.379 28.6855 119.93 28.5098C120.492 28.334 121.049 28.1172 121.6 27.8594C122.15 27.5898 122.678 27.3027 123.182 26.998C123.686 26.6934 124.119 26.418 124.482 26.1719L123.639 34.1523C123.182 34.5039 122.684 34.8027 122.145 35.0488C121.617 35.2949 121.066 35.4941 120.492 35.6465C119.918 35.7988 119.338 35.9102 118.752 35.9805C118.166 36.0508 117.592 36.0859 117.029 36.0859C115.869 36.0859 114.809 35.9277 113.848 35.6113C112.887 35.2949 112.014 34.8555 111.229 34.293C110.455 33.7188 109.775 33.0449 109.189 32.2715C108.604 31.498 108.117 30.6543 107.73 29.7402C107.344 28.8262 107.051 27.8594 106.852 26.8398C106.652 25.8203 106.553 24.7891 106.553 23.7461C106.553 22.6562 106.652 21.5664 106.852 20.4766C107.051 19.3867 107.35 18.3379 107.748 17.3301C108.158 16.3223 108.668 15.3906 109.277 14.5352C109.898 13.668 110.619 12.9121 111.439 12.2676C112.26 11.623 113.186 11.1191 114.217 10.7559C115.26 10.3926 116.408 10.2109 117.662 10.2109C118.705 10.2109 119.654 10.3574 120.51 10.6504C121.377 10.9316 122.145 11.3301 122.812 11.8457C123.492 12.3496 124.078 12.9531 124.57 13.6562C125.074 14.3594 125.484 15.1328 125.801 15.9766C126.129 16.8086 126.369 17.6934 126.521 18.6309C126.686 19.5566 126.768 20.5 126.768 21.4609ZM119.736 20.5469C119.736 20.2188 119.701 19.8848 119.631 19.5449C119.561 19.1934 119.443 18.877 119.279 18.5957C119.127 18.3145 118.922 18.0859 118.664 17.9102C118.406 17.7227 118.084 17.6289 117.697 17.6289C117.229 17.6289 116.812 17.7578 116.449 18.0156C116.098 18.2617 115.793 18.5781 115.535 18.9648C115.277 19.3398 115.066 19.75 114.902 20.1953C114.738 20.6406 114.615 21.0508 114.533 21.4258L119.736 20.9336V20.5469Z" fill="#77BEFF"/>
<path d="M106.043 21.707C106.043 23.3477 105.832 24.8184 105.41 26.1191C104.988 27.4199 104.396 28.5742 103.635 29.582C102.885 30.5781 101.988 31.4277 100.945 32.1309C99.9023 32.834 98.7598 33.4141 97.5176 33.8711C96.2754 34.3164 94.9512 34.6445 93.5449 34.8555C92.1504 35.0664 90.7148 35.1719 89.2383 35.1719C88.6875 35.1719 88.1484 35.1602 87.6211 35.1367C87.0938 35.1016 86.5547 35.0547 86.0039 34.9961L86.4961 12.1094C87.7852 11.6992 89.1094 11.4121 90.4688 11.248C91.8398 11.0723 93.1992 10.9844 94.5469 10.9844C96.2227 10.9844 97.7637 11.2188 99.1699 11.6875C100.576 12.1562 101.789 12.8477 102.809 13.7617C103.828 14.6641 104.619 15.7832 105.182 17.1191C105.756 18.4434 106.043 19.9727 106.043 21.707ZM94.0898 28.457C94.793 28.3516 95.4316 28.1406 96.0059 27.8242C96.5918 27.4961 97.0957 27.0977 97.5176 26.6289C97.9395 26.1484 98.2617 25.6094 98.4844 25.0117C98.7188 24.4023 98.8359 23.7578 98.8359 23.0781C98.8359 22.4102 98.7656 21.7891 98.625 21.2148C98.4844 20.6289 98.2559 20.125 97.9395 19.7031C97.623 19.2695 97.207 18.9297 96.6914 18.6836C96.1758 18.4258 95.543 18.2852 94.793 18.2617L94.0898 28.457Z" fill="#77BEFF"/>
<path d="M84.457 26.7695C84.457 28.0938 84.4395 29.4062 84.4043 30.707C84.3809 31.9961 84.3398 33.2969 84.2812 34.6094C84.2812 34.6094 82 32.1641 79.4824 33.1641C76.9648 34.1641 74.1562 34.4336 74.1562 34.4336C74.5078 32.3594 74.8125 30.291 75.0703 28.2285C75.3281 26.1543 75.457 24.0625 75.457 21.9531C75.457 21.8008 75.4512 21.5547 75.4395 21.2148C75.4277 20.875 75.4043 20.4941 75.3691 20.0723C75.334 19.6387 75.2812 19.1992 75.2109 18.7539C75.1523 18.2969 75.0645 17.8809 74.9473 17.5059C74.8418 17.1309 74.707 16.8262 74.543 16.5918C74.3906 16.3457 74.2031 16.2227 73.9805 16.2227C73.582 16.2227 73.2422 16.3398 72.9609 16.5742C72.6914 16.8086 72.4629 17.1133 72.2754 17.4883C72.0996 17.8516 71.959 18.2617 71.8535 18.7188C71.748 19.1758 71.666 19.6328 71.6074 20.0898C71.5605 20.5469 71.5254 20.9805 71.502 21.3906C71.4902 21.7891 71.4844 22.1172 71.4844 22.375C71.4258 24.4492 71.3789 26.5117 71.3438 28.5625C71.3086 30.6016 71.2617 32.6641 71.2031 34.75C71.2031 34.75 67.5 34.1641 66.5 34.1641C65.5 34.1641 62.2383 35.1367 62.2383 35.1367C62.4727 31 62.6953 26.8867 62.9062 22.7969C63.1289 18.707 63.3047 14.5938 63.4336 10.457L71.7305 10.0352L71.6602 12.8477C71.9883 12.4492 72.3398 12.0742 72.7148 11.7227C73.1016 11.3711 73.5117 11.0723 73.9453 10.8262C74.3789 10.5684 74.8359 10.3691 75.3164 10.2285C75.8086 10.0762 76.3242 10 76.8633 10C77.8594 10 78.7324 10.1641 79.4824 10.4922C80.2324 10.8203 80.877 11.2656 81.416 11.8281C81.9551 12.3906 82.4062 13.0586 82.7695 13.832C83.1328 14.5938 83.4258 15.4082 83.6484 16.2754C83.8711 17.1426 84.041 18.0508 84.1582 19C84.2754 19.9375 84.3516 20.8633 84.3867 21.7773C84.4336 22.6914 84.457 23.5762 84.457 24.4316C84.457 25.2871 84.457 26.0664 84.457 26.7695Z" fill="#77BEFF"/>
<path d="M61.623 22.1992C61.623 23.2656 61.5 24.2969 61.2539 25.293C61.0078 26.2773 60.6504 27.2031 60.1816 28.0703C59.7246 28.9375 59.1621 29.7344 58.4941 30.4609C57.8379 31.1758 57.0938 31.791 56.2617 32.3066C55.4414 32.8223 54.5449 33.2266 53.5723 33.5195C52.5996 33.8008 51.5684 33.9414 50.4785 33.9414C49.4238 33.9414 48.416 33.8066 47.4551 33.5371C46.5059 33.2676 45.6152 32.8926 44.7832 32.4121C43.9512 31.9199 43.1953 31.334 42.5156 30.6543C41.8477 29.9629 41.2734 29.2012 40.793 28.3691C40.3242 27.5254 39.9551 26.623 39.6855 25.6621C39.4277 24.7012 39.2988 23.6992 39.2988 22.6562C39.2988 21.6367 39.4219 20.6406 39.668 19.668C39.9141 18.6836 40.2656 17.7578 40.7227 16.8906C41.1914 16.0234 41.7539 15.2266 42.4102 14.5C43.0664 13.7734 43.7988 13.1465 44.6074 12.6191C45.4277 12.0918 46.3125 11.6816 47.2617 11.3887C48.2109 11.0957 49.2129 10.9492 50.2676 10.9492C51.9668 10.9492 53.5137 11.2129 54.9082 11.7402C56.3145 12.2676 57.5098 13.0234 58.4941 14.0078C59.4902 14.9805 60.2578 16.1641 60.7969 17.5586C61.3477 18.9414 61.623 20.4883 61.623 22.1992ZM53.8184 22.6562C53.8184 22.1523 53.7422 21.666 53.5898 21.1973C53.4492 20.7168 53.2383 20.2949 52.957 19.9316C52.6758 19.5566 52.3242 19.2578 51.9023 19.0352C51.4922 18.8008 51.0176 18.6836 50.4785 18.6836C49.9277 18.6836 49.4355 18.7832 49.002 18.9824C48.5684 19.1816 48.1934 19.457 47.877 19.8086C47.5723 20.1484 47.3379 20.5527 47.1738 21.0215C47.0098 21.4785 46.9277 21.9648 46.9277 22.4805C46.9277 22.9727 46.998 23.4648 47.1387 23.957C47.2793 24.4492 47.4902 24.8945 47.7715 25.293C48.0527 25.6914 48.3984 26.0137 48.8086 26.2598C49.2305 26.5059 47.9582 25.5351 50.2676 25.4336C52.5769 25.3321 51.3105 26.5234 51.7441 26.3125C52.1895 26.0898 52.5645 25.7969 52.8691 25.4336C53.1738 25.0586 53.4082 24.6309 53.5723 24.1504C53.7363 23.6699 53.8184 23.1719 53.8184 22.6562Z" fill="#77BEFF"/>
</svg>
