<svg width="40" height="40" viewBox="0 0 40 40" fill="none" xmlns="http://www.w3.org/2000/svg">
<path d="M31.4167 17.3167L33.1833 15.55C34.4833 14.25 34.4833 12.1333 33.1833 10.8333L30.8333 8.48333C29.5333 7.18333 27.4167 7.18333 26.1167 8.48333L24.35 10.25L31.4167 17.3167ZM21.9833 12.6L14.5 20C14.5 20 14.5 20.2741 14.5 20.387C14.5 20.5 14.1172 20.387 14.1172 20.387L6.9 27.6833C6.7491 27.8399 6.66536 28.0492 6.66667 28.2667V34.1667C6.66667 34.6333 7.03333 35 7.5 35H13.4C13.6167 35 13.8333 34.9167 13.9833 34.75L17.7542 30.9792C17.7542 30.9792 19.5 32.5 21 30.5C22.5 28.5 21.525 27.2083 21.525 27.2083L29.0667 19.6667L21.9833 12.6ZM31.6667 29.1667C31.6667 32.8167 27.4333 35 23.3333 35C22.4167 35 21.6667 34.25 21.6667 33.3333C21.6667 32.4167 22.4167 31.6667 23.3333 31.6667C25.9 31.6667 28.3333 30.45 28.3333 29.1667C28.3333 28.3833 27.5333 27.7167 26.2833 27.1667L28.75 24.7C30.5333 25.75 31.6667 27.15 31.6667 29.1667ZM7.63333 22.25C6.01667 21.3167 5 20.1 5 18.3333C5 15.3333 8.21667 14.7167 11 13.5C12.7167 12.7333 15 10.9333 15 10C15 9.31667 13.7 8.33333 11.6667 8.33333C9.56667 8.33333 8.66667 9.35 8.61667 9.4C8.03333 10.0833 6.98333 10.1667 6.28333 9.6C5.94912 9.3255 5.73576 8.93097 5.68903 8.50101C5.64229 8.07105 5.7659 7.63989 6.03333 7.3C6.21667 7.06667 7.93333 5 11.6667 5C15.4 5 18.3333 7.2 18.3333 10C18.3333 13.1167 15.1167 14.5333 12.2667 15.7833C10.7 16.4667 8.33333 17.5 8.33333 18.3333C8.33333 18.85 9.05 19.3333 10.1167 19.7667L7.63333 22.25Z" fill="#002E59"/>
</svg>
