<svg width="185" height="27" viewBox="0 0 185 27" fill="none" xmlns="http://www.w3.org/2000/svg">
<path d="M184.992 11.4609C184.992 12.4805 184.922 13.5 184.781 14.5195C182.777 14.6484 180.785 14.8594 178.805 15.1523C176.824 15.4336 174.844 15.7148 172.863 15.9961C173.168 16.8398 173.643 17.5137 174.287 18.0176C174.943 18.5215 175.723 18.7734 176.625 18.7734C177.094 18.7734 177.604 18.6855 178.154 18.5098C178.717 18.334 179.273 18.1172 179.824 17.8594C180.375 17.5898 180.902 17.3027 181.406 16.998C181.91 16.6934 182.344 16.418 182.707 16.1719C182.707 16.1719 181.201 19.1641 181.201 21.1641C181.201 23.1641 181.863 24.1523 181.863 24.1523C181.406 24.5039 180.908 24.8027 180.369 25.0488C179.842 25.2949 179.291 25.4941 178.717 25.6465C178.143 25.7988 177.562 25.9102 176.977 25.9805C176.391 26.0508 175.816 26.0859 175.254 26.0859C174.094 26.0859 173.033 25.9277 172.072 25.6113C171.111 25.2949 170.238 24.8555 169.453 24.293C168.68 23.7188 168 23.0449 167.414 22.2715C166.828 21.498 166.342 20.6543 165.955 19.7402C165.568 18.8262 165.275 17.8594 165.076 16.8398C164.877 15.8203 164.777 14.7891 164.777 13.7461C164.777 12.6562 164.877 11.5664 165.076 10.4766C165.275 9.38672 165.574 8.33789 165.973 7.33008C166.383 6.32227 166.893 5.39062 167.502 4.53516C168.123 3.66797 168.844 2.91211 169.664 2.26758C170.484 1.62305 171.41 1.11914 172.441 0.755859C173.484 0.392578 174.633 0.210938 175.887 0.210938C176.93 0.210938 177.879 0.357422 178.734 0.650391C179.602 0.931641 179.701 2.64844 180.369 3.16406C181.049 3.66797 182.303 2.95312 182.795 3.65625C183.299 4.35938 183.709 5.13281 184.025 5.97656C184.354 6.80859 184.594 7.69336 184.746 8.63086C184.91 9.55664 184.992 10.5 184.992 11.4609ZM177.961 10.5469C177.961 10.2188 177.926 9.88477 177.855 9.54492C177.785 9.19336 177.668 8.87695 177.504 8.5957C177.352 8.31445 177.146 8.08594 176.889 7.91016C176.631 7.72266 176.309 7.62891 175.922 7.62891C175.453 7.62891 175.037 7.75781 174.674 8.01562C174.322 8.26172 174.018 8.57812 173.76 8.96484C173.502 9.33984 173.291 9.75 173.127 10.1953C172.963 10.6406 172.84 11.0508 172.758 11.4258L177.961 10.9336V10.5469Z" fill="#002E59"/>
<path d="M163.705 16.7695C163.705 18.0938 163.688 19.4062 163.652 20.707C163.629 21.9961 163.588 23.2969 163.529 24.6094C163.529 24.6094 161.701 22.6641 160.701 23.1641C159.701 23.6641 153.404 24.4336 153.404 24.4336C153.756 22.3594 154.061 20.291 154.318 18.2285C154.576 16.1543 154.705 14.0625 154.705 11.9531C154.705 11.8008 154.699 11.5547 154.688 11.2148C154.676 10.875 154.652 10.4941 154.617 10.0723C154.582 9.63867 154.529 9.19922 154.459 8.75391C154.4 8.29688 154.312 7.88086 154.195 7.50586C154.09 7.13086 153.955 6.82617 153.791 6.5918C153.639 6.3457 153.451 6.22266 153.229 6.22266C152.83 6.22266 152.49 6.33984 152.209 6.57422C151.939 6.80859 151.711 7.11328 151.523 7.48828C151.348 7.85156 151.207 8.26172 151.102 8.71875C150.996 9.17578 150.914 9.63281 150.855 10.0898C150.809 10.5469 150.773 10.9805 150.75 11.3906C150.738 11.7891 150.732 12.1172 150.732 12.375C150.674 14.4492 150.627 16.5117 150.592 18.5625C150.557 20.6016 150.51 22.6641 150.451 24.75C150.451 24.75 146.701 26.1641 146.201 23.6641C145.701 21.1641 141.486 25.1367 141.486 25.1367C141.721 21 141.943 16.8867 142.154 12.7969C142.377 8.70703 142.553 4.59375 142.682 0.457031L150.979 0.0351562L150.908 2.84766C151.236 2.44922 151.588 2.07422 151.963 1.72266C152.35 1.37109 152.76 1.07227 153.193 0.826172C153.627 0.568359 154.084 0.369141 154.564 0.228516C155.057 0.0761719 155.572 0 156.111 0C157.107 0 157.98 0.164062 158.73 0.492188C159.48 0.820312 160.125 1.26562 160.664 1.82812C161.203 2.39062 161.654 3.05859 162.018 3.83203C162.381 4.59375 162.674 5.4082 162.896 6.27539C163.119 7.14258 163.289 8.05078 163.406 9C163.523 9.9375 163.6 10.8633 163.635 11.7773C163.682 12.6914 163.705 13.5762 163.705 14.4316C163.705 15.2871 163.705 16.0664 163.705 16.7695Z" fill="#002E59"/>
<path d="M140.221 16.7695C140.221 18.0938 140.203 19.4062 140.168 20.707C140.145 21.9961 140.104 23.2969 140.045 24.6094C140.045 24.6094 136.701 22.1641 135.201 23.6641C133.701 25.1641 129.92 24.4336 129.92 24.4336C130.271 22.3594 130.576 20.291 130.834 18.2285C131.092 16.1543 131.221 14.0625 131.221 11.9531C131.221 11.8008 131.215 11.5547 131.203 11.2148C131.191 10.875 131.168 10.4941 131.133 10.0723C131.098 9.63867 131.045 9.19922 130.975 8.75391C130.916 8.29688 130.828 7.88086 130.711 7.50586C130.605 7.13086 130.471 6.82617 130.307 6.5918C130.154 6.3457 129.967 6.22266 129.744 6.22266C129.346 6.22266 129.006 6.33984 128.725 6.57422C128.455 6.80859 128.227 7.11328 128.039 7.48828C127.863 7.85156 127.723 8.26172 127.617 8.71875C127.512 9.17578 127.43 9.63281 127.371 10.0898C127.324 10.5469 127.289 10.9805 127.266 11.3906C127.254 11.7891 127.248 12.1172 127.248 12.375C127.189 14.4492 127.143 16.5117 127.107 18.5625C127.072 20.6016 127.025 22.6641 126.967 24.75C126.967 24.75 125.201 24.1641 122.701 24.1641C120.201 24.1641 118.002 25.1367 118.002 25.1367C118.236 21 118.459 16.8867 118.67 12.7969C118.893 8.70703 119.068 4.59375 119.197 0.457031L127.494 0.0351562L127.424 2.84766C127.752 2.44922 128.104 2.07422 128.479 1.72266C128.865 1.37109 129.275 1.07227 129.709 0.826172C130.143 0.568359 130.6 0.369141 131.08 0.228516C131.572 0.0761719 132.088 0 132.627 0C133.623 0 134.496 0.164062 135.246 0.492188C135.996 0.820312 136.641 1.26562 137.18 1.82812C137.719 2.39062 138.17 3.05859 138.533 3.83203C138.896 4.59375 139.189 5.4082 139.412 6.27539C139.635 7.14258 139.805 8.05078 139.922 9C140.039 9.9375 140.115 10.8633 140.15 11.7773C140.197 12.6914 140.221 13.5762 140.221 14.4316C140.221 15.2871 140.221 16.0664 140.221 16.7695Z" fill="#002E59"/>
<path d="M116.965 0.914062L115.734 24.8555C115.734 24.8555 113.701 24.6641 112.201 24.1641C110.701 23.6641 108.316 25.2422 108.316 25.2422L107.613 1.40625L116.965 0.914062Z" fill="#002E59"/>
<path d="M106.646 16.6641C106.646 18.2695 106.365 19.6582 105.803 20.8301C105.252 21.9902 104.49 22.9512 103.518 23.7129C102.557 24.4629 101.426 25.0195 100.125 25.3828C98.8359 25.7344 97.4473 25.9102 95.959 25.9102C95.3848 25.9102 94.752 25.834 94.0605 25.6816C93.3809 25.5293 92.6895 25.3418 91.9863 25.1191C91.2832 24.8848 90.6035 24.6387 89.9473 24.3809C89.3027 24.1113 88.7285 23.8594 88.2246 23.625L88.998 16.7344C89.9941 17.332 91.0957 17.7891 92.3027 18.1055C93.5215 18.4102 94.7168 18.5625 95.8887 18.5625C96.1113 18.5625 96.3809 18.5566 96.6973 18.5449C97.0137 18.5215 97.3125 18.4688 97.5938 18.3867C97.8867 18.293 98.1328 18.1582 98.332 17.9824C98.5312 17.8066 98.6309 17.5547 98.6309 17.2266C98.6309 17.0039 98.5605 16.8164 98.4199 16.6641C98.2793 16.5 98.0977 16.3711 97.875 16.2773C97.6523 16.1719 97.4004 16.0957 97.1191 16.0488C96.8379 15.9902 96.5625 15.9492 96.293 15.9258C96.0234 15.9023 95.7715 15.8906 95.5371 15.8906C95.3027 15.8906 95.1152 15.8906 94.9746 15.8906C93.9668 15.8906 93.0469 15.7324 92.2148 15.416C91.3945 15.0996 90.6855 14.6543 90.0879 14.0801C89.502 13.4941 89.0449 12.791 88.7168 11.9707C88.3887 11.1387 88.2246 10.2188 88.2246 9.21094C88.2246 7.82812 88.5 6.5918 89.0508 5.50195C89.6133 4.40039 90.3574 3.46875 91.2832 2.70703C92.2207 1.93359 93.293 1.3418 94.5 0.931641C95.707 0.521484 96.9551 0.316406 98.2441 0.316406C98.8184 0.316406 99.4102 0.339844 100.02 0.386719C100.629 0.421875 101.232 0.492188 101.83 0.597656C102.439 0.703125 103.031 0.837891 103.605 1.00195C104.18 1.16602 104.725 1.37109 105.24 1.61719L104.572 8.75391C103.775 8.48438 102.938 8.26172 102.059 8.08594C101.191 7.89844 100.342 7.80469 99.5098 7.80469C99.3574 7.80469 99.1582 7.81055 98.9121 7.82227C98.6777 7.82227 98.4258 7.83984 98.1562 7.875C97.8984 7.89844 97.6348 7.93945 97.3652 7.99805C97.0957 8.05664 96.8555 8.13867 96.6445 8.24414C96.4336 8.33789 96.2637 8.4668 96.1348 8.63086C96.0059 8.79492 95.9473 8.98828 95.959 9.21094C95.9707 9.46875 96.0645 9.66797 96.2402 9.80859C96.4277 9.94922 96.6621 10.0547 96.9434 10.125C97.2363 10.1836 97.5527 10.2129 97.8926 10.2129C98.2441 10.2129 98.5898 10.207 98.9297 10.1953C99.2695 10.1719 99.5859 10.1543 99.8789 10.1426C100.172 10.1191 100.412 10.1133 100.6 10.125C101.537 10.1836 102.381 10.3828 103.131 10.7227C103.881 11.0625 104.514 11.5137 105.029 12.0762C105.557 12.6387 105.955 13.3125 106.225 14.0977C106.506 14.8711 106.646 15.7266 106.646 16.6641Z" fill="#002E59"/>
<path d="M87.4688 11.4609C87.4688 12.4805 87.3984 13.5 87.2578 14.5195C85.2539 14.6484 83.2617 14.8594 81.2812 15.1523C79.3008 15.4336 77.3203 15.7148 75.3398 15.9961C75.6445 16.8398 76.1191 17.5137 76.7637 18.0176C77.4199 18.5215 78.1992 18.7734 79.1016 18.7734C79.5703 18.7734 80.0801 18.6855 80.6309 18.5098C81.1934 18.334 81.75 18.1172 82.3008 17.8594C82.8516 17.5898 83.3789 17.3027 83.8828 16.998C84.3867 16.6934 84.8203 16.418 85.1836 16.1719L84.3398 24.1523C83.8828 24.5039 83.3848 24.8027 82.8457 25.0488C82.3184 25.2949 81.7676 25.4941 81.1934 25.6465C80.6191 25.7988 80.0391 25.9102 79.4531 25.9805C78.8672 26.0508 78.293 26.0859 77.7305 26.0859C76.5703 26.0859 75.5098 25.9277 74.5488 25.6113C73.5879 25.2949 72.7148 24.8555 71.9297 24.293C71.1562 23.7188 70.4766 23.0449 69.8906 22.2715C69.3047 21.498 68.8184 20.6543 68.4316 19.7402C68.0449 18.8262 67.752 17.8594 67.5527 16.8398C67.3535 15.8203 67.2539 14.7891 67.2539 13.7461C67.2539 12.6562 67.3535 11.5664 67.5527 10.4766C67.752 9.38672 68.0508 8.33789 68.4492 7.33008C68.8594 6.32227 69.3691 5.39062 69.9785 4.53516C70.5996 3.66797 71.3203 2.91211 72.1406 2.26758C72.9609 1.62305 73.8867 1.11914 74.918 0.755859C75.9609 0.392578 77.1094 0.210938 78.3633 0.210938C79.4062 0.210938 80.3555 0.357422 81.2109 0.650391C82.0781 0.931641 82.8457 1.33008 83.5137 1.8457C84.1934 2.34961 84.7793 2.95312 85.2715 3.65625C85.7754 4.35938 86.1855 5.13281 86.502 5.97656C86.8301 6.80859 87.0703 7.69336 87.2227 8.63086C87.3867 9.55664 87.4688 10.5 87.4688 11.4609ZM80.4375 10.5469C80.4375 10.2188 80.4023 9.88477 80.332 9.54492C80.2617 9.19336 80.1445 8.87695 79.9805 8.5957C79.8281 8.31445 79.623 8.08594 79.3652 7.91016C79.1074 7.72266 78.7852 7.62891 78.3984 7.62891C77.9297 7.62891 77.5137 7.75781 77.1504 8.01562C76.7988 8.26172 76.4941 8.57812 76.2363 8.96484C75.9785 9.33984 75.7676 9.75 75.6035 10.1953C75.4395 10.6406 75.3164 11.0508 75.2344 11.4258L80.4375 10.9336V10.5469Z" fill="#002E59"/>
<path d="M66.7441 11.707C66.7441 13.3477 66.5332 14.8184 66.1113 16.1191C65.6895 17.4199 65.0977 18.5742 64.3359 19.582C63.5859 20.5781 62.6895 21.4277 61.6465 22.1309C60.6035 22.834 59.4609 23.4141 58.2188 23.8711C56.9766 24.3164 55.6523 24.6445 54.2461 24.8555C52.8516 25.0664 51.416 25.1719 49.9395 25.1719C49.3887 25.1719 48.8496 25.1602 48.3223 25.1367C47.7949 25.1016 47.2559 25.0547 46.7051 24.9961L47.1973 2.10938C48.4863 1.69922 49.8105 1.41211 51.1699 1.24805C52.541 1.07227 53.9004 0.984375 55.248 0.984375C56.9238 0.984375 58.4648 1.21875 59.8711 1.6875C61.2773 2.15625 62.4902 2.84766 63.5098 3.76172C64.5293 4.66406 65.3203 5.7832 65.8828 7.11914C66.457 8.44336 66.7441 9.97266 66.7441 11.707ZM54.791 18.457C55.4941 18.3516 56.1328 18.1406 56.707 17.8242C57.293 17.4961 57.7969 17.0977 58.2188 16.6289C58.6406 16.1484 58.9629 15.6094 59.1855 15.0117C59.4199 14.4023 59.5371 13.7578 59.5371 13.0781C59.5371 12.4102 59.4668 11.7891 59.3262 11.2148C59.1855 10.6289 58.957 10.125 58.6406 9.70312C58.3242 9.26953 57.9082 8.92969 57.3926 8.68359C56.877 8.42578 56.2441 8.28516 55.4941 8.26172L54.791 18.457Z" fill="#002E59"/>
<path d="M45.1582 16.7695C45.1582 18.0938 45.1406 19.4062 45.1055 20.707C45.082 21.9961 45.041 23.2969 44.9824 24.6094C44.9824 24.6094 42.7012 22.1641 40.1836 23.1641C37.666 24.1641 34.8574 24.4336 34.8574 24.4336C35.209 22.3594 35.5137 20.291 35.7715 18.2285C36.0293 16.1543 36.1582 14.0625 36.1582 11.9531C36.1582 11.8008 36.1523 11.5547 36.1406 11.2148C36.1289 10.875 36.1055 10.4941 36.0703 10.0723C36.0352 9.63867 35.9824 9.19922 35.9121 8.75391C35.8535 8.29688 35.7656 7.88086 35.6484 7.50586C35.543 7.13086 35.4082 6.82617 35.2441 6.5918C35.0918 6.3457 34.9043 6.22266 34.6816 6.22266C34.2832 6.22266 33.9434 6.33984 33.6621 6.57422C33.3926 6.80859 33.1641 7.11328 32.9766 7.48828C32.8008 7.85156 32.6602 8.26172 32.5547 8.71875C32.4492 9.17578 32.3672 9.63281 32.3086 10.0898C32.2617 10.5469 32.2266 10.9805 32.2031 11.3906C32.1914 11.7891 32.1855 12.1172 32.1855 12.375C32.127 14.4492 32.0801 16.5117 32.0449 18.5625C32.0098 20.6016 31.9629 22.6641 31.9043 24.75C31.9043 24.75 28.2012 24.1641 27.2012 24.1641C26.2012 24.1641 22.9395 25.1367 22.9395 25.1367C23.1738 21 23.3965 16.8867 23.6074 12.7969C23.8301 8.70703 24.0059 4.59375 24.1348 0.457031L32.4316 0.0351562L32.3613 2.84766C32.6895 2.44922 33.041 2.07422 33.416 1.72266C33.8027 1.37109 34.2129 1.07227 34.6465 0.826172C35.0801 0.568359 35.5371 0.369141 36.0176 0.228516C36.5098 0.0761719 37.0254 0 37.5645 0C38.5605 0 39.4336 0.164062 40.1836 0.492188C40.9336 0.820312 41.5781 1.26562 42.1172 1.82812C42.6562 2.39062 43.1074 3.05859 43.4707 3.83203C43.834 4.59375 44.127 5.4082 44.3496 6.27539C44.5723 7.14258 44.7422 8.05078 44.8594 9C44.9766 9.9375 45.0527 10.8633 45.0879 11.7773C45.1348 12.6914 45.1582 13.5762 45.1582 14.4316C45.1582 15.2871 45.1582 16.0664 45.1582 16.7695Z" fill="#002E59"/>
<path d="M22.3242 12.1992C22.3242 13.2656 22.2012 14.2969 21.9551 15.293C21.709 16.2773 21.3516 17.2031 20.8828 18.0703C20.4258 18.9375 19.8633 19.7344 19.1953 20.4609C18.5391 21.1758 17.7949 21.791 16.9629 22.3066C16.1426 22.8223 15.2461 23.2266 14.2734 23.5195C13.3008 23.8008 12.2695 23.9414 11.1797 23.9414C10.125 23.9414 9.11719 23.8066 8.15625 23.5371C7.20703 23.2676 6.31641 22.8926 5.48438 22.4121C4.65234 21.9199 3.89648 21.334 3.2168 20.6543C2.54883 19.9629 1.97461 19.2012 1.49414 18.3691C1.02539 17.5254 0.65625 16.623 0.386719 15.6621C0.128906 14.7012 0 13.6992 0 12.6562C0 11.6367 0.123047 10.6406 0.369141 9.66797C0.615234 8.68359 0.966797 7.75781 1.42383 6.89062C1.89258 6.02344 2.45508 5.22656 3.11133 4.5C3.76758 3.77344 4.5 3.14648 5.30859 2.61914C6.12891 2.0918 7.01367 1.68164 7.96289 1.38867C8.91211 1.0957 9.91406 0.949219 10.9688 0.949219C12.668 0.949219 14.2148 1.21289 15.6094 1.74023C17.0156 2.26758 18.2109 3.02344 19.1953 4.00781C20.1914 4.98047 20.959 6.16406 21.498 7.55859C22.0488 8.94141 22.3242 10.4883 22.3242 12.1992ZM14.5195 12.6562C14.5195 12.1523 14.4434 11.666 14.291 11.1973C14.1504 10.7168 13.9395 10.2949 13.6582 9.93164C13.377 9.55664 13.0254 9.25781 12.6035 9.03516C12.1934 8.80078 11.7188 8.68359 11.1797 8.68359C10.6289 8.68359 10.1367 8.7832 9.70312 8.98242C9.26953 9.18164 8.89453 9.45703 8.57812 9.80859C8.27344 10.1484 8.03906 10.5527 7.875 11.0215C7.71094 11.4785 7.62891 11.9648 7.62891 12.4805C7.62891 12.9727 7.69922 13.4648 7.83984 13.957C7.98047 14.4492 8.19141 14.8945 8.47266 15.293C8.75391 15.6914 9.09961 16.0137 9.50977 16.2598C9.93164 16.5059 8.65939 15.5351 10.9688 15.4336C13.2781 15.3321 12.0117 16.5234 12.4453 16.3125C12.8906 16.0898 13.2656 15.7969 13.5703 15.4336C13.875 15.0586 14.1094 14.6309 14.2734 14.1504C14.4375 13.6699 14.5195 13.1719 14.5195 12.6562Z" fill="#002E59"/>
</svg>
