<svg width="24" height="24" viewBox="0 0 24 24" fill="none" xmlns="http://www.w3.org/2000/svg">
<path d="M17 8.00011H16V6.11011C16 5.04924 15.5786 4.03183 14.8284 3.28168C14.0783 2.53153 13.0609 2.11011 12 2.11011C10.9391 2.11011 9.92172 2.53153 9.17157 3.28168C8.42143 4.03183 8 5.04924 8 6.11011V8.00011H7C6.20435 8.00011 5.44129 8.31618 4.87868 8.87879C4.31607 9.4414 4 10.2045 4 11.0001V19.0001C4 19.7958 4.31607 20.5588 4.87868 21.1214C5.44129 21.684 6.20435 22.0001 7 22.0001H17C17.7956 22.0001 18.5587 21.684 19.1213 21.1214C19.6839 20.5588 20 19.7958 20 19.0001V11.0001C20 10.2045 19.6839 9.4414 19.1213 8.87879C18.5587 8.31618 17.7956 8.00011 17 8.00011ZM10 6.11011C9.98655 5.5654 10.1894 5.03756 10.5643 4.6421C10.9391 4.24665 11.4554 4.01581 12 4.00011C12.5446 4.01581 13.0609 4.24665 13.4357 4.6421C13.8106 5.03756 14.0135 5.5654 14 6.11011V8.00011H10V6.11011ZM18 19.0001C18 19.2653 17.8946 19.5197 17.7071 19.7072C17.5196 19.8948 17.2652 20.0001 17 20.0001H7C6.73478 20.0001 6.48043 19.8948 6.29289 19.7072C6.10536 19.5197 6 19.2653 6 19.0001V11.0001C6 10.7349 6.10536 10.4805 6.29289 10.293C6.48043 10.1055 6.73478 10.0001 7 10.0001H17C17.2652 10.0001 17.5196 10.1055 17.7071 10.293C17.8946 10.4805 18 10.7349 18 11.0001V19.0001Z" fill="#1B1B1F"/>
<path d="M12 12C11.4067 12 10.8266 12.1759 10.3333 12.5056C9.83994 12.8352 9.45543 13.3038 9.22836 13.8519C9.0013 14.4001 8.94189 15.0033 9.05765 15.5853C9.1734 16.1672 9.45912 16.7018 9.87868 17.1213C10.2982 17.5409 10.8328 17.8266 11.4147 17.9424C11.9967 18.0581 12.5999 17.9987 13.1481 17.7716C13.6962 17.5446 14.1648 17.1601 14.4944 16.6667C14.8241 16.1734 15 15.5933 15 15C15 14.2044 14.6839 13.4413 14.1213 12.8787C13.5587 12.3161 12.7957 12 12 12ZM12 16C11.8022 16 11.6089 15.9414 11.4444 15.8315C11.28 15.7216 11.1518 15.5654 11.0761 15.3827C11.0004 15.2 10.9806 14.9989 11.0192 14.8049C11.0578 14.6109 11.153 14.4327 11.2929 14.2929C11.4327 14.153 11.6109 14.0578 11.8049 14.0192C11.9989 13.9806 12.2 14.0004 12.3827 14.0761C12.5654 14.1518 12.7216 14.28 12.8315 14.4444C12.9414 14.6089 13 14.8022 13 15C13 15.2652 12.8946 15.5196 12.7071 15.7071C12.5196 15.8946 12.2652 16 12 16Z" fill="#1B1B1F"/>
</svg>
