<svg width="17" height="16" viewBox="0 0 17 16" fill="none" xmlns="http://www.w3.org/2000/svg">
<path d="M7.09438 12.552L13.3136 6.33361C13.4887 6.15848 13.6276 5.95057 13.7224 5.72175C13.8172 5.49293 13.866 5.24768 13.866 5.00001C13.866 4.75234 13.8172 4.50709 13.7224 4.27827C13.6276 4.04945 13.4887 3.84154 13.3136 3.66641C13.1384 3.49128 12.9305 3.35236 12.7017 3.25758C12.4729 3.1628 12.2277 3.11401 11.98 3.11401C11.7323 3.11401 11.4871 3.1628 11.2582 3.25758C11.0294 3.35236 10.8215 3.49128 10.6464 3.66641L4.42798 9.88561C4.18025 10.1332 3.98371 10.4271 3.8496 10.7507C3.71549 11.0742 3.64644 11.421 3.64638 11.7712V13.3336H5.20878C5.91598 13.3336 6.59438 13.052 7.09438 12.552Z" stroke="#1B1B1F" stroke-linecap="round" stroke-linejoin="round"/>
<path d="M9.97998 4.3335L12.6464 6.9999" stroke="#1B1B1F" stroke-linecap="round" stroke-linejoin="round"/>
</svg>
