<svg width="16" height="16" viewBox="0 0 16 16" fill="none" xmlns="http://www.w3.org/2000/svg">
<g clip-path="url(#clip0_44_116)">
<path d="M5.33334 8.66675V3.66675C5.33334 3.40153 5.4387 3.14718 5.62624 2.95964C5.81377 2.7721 6.06813 2.66675 6.33334 2.66675C6.59856 2.66675 6.85291 2.7721 7.04045 2.95964C7.22799 3.14718 7.33334 3.40153 7.33334 3.66675V8.00008" stroke="#1B1B1F" stroke-width="0.833333" stroke-linecap="round" stroke-linejoin="round"/>
<path d="M7.33334 3.66659V2.33325C7.33334 2.20193 7.35921 2.07189 7.40946 1.95057C7.45972 1.82924 7.53338 1.719 7.62624 1.62615C7.7191 1.53329 7.82933 1.45963 7.95066 1.40937C8.07199 1.35912 8.20202 1.33325 8.33334 1.33325C8.46467 1.33325 8.5947 1.35912 8.71603 1.40937C8.83735 1.45963 8.94759 1.53329 9.04045 1.62615C9.13331 1.719 9.20697 1.82924 9.25722 1.95057C9.30748 2.07189 9.33334 2.20193 9.33334 2.33325V7.99992" stroke="#1B1B1F" stroke-width="0.833333" stroke-linecap="round" stroke-linejoin="round"/>
<path d="M9.33334 3.66675C9.33334 3.40153 9.4387 3.14718 9.62624 2.95964C9.81377 2.7721 10.0681 2.66675 10.3333 2.66675C10.5986 2.66675 10.8529 2.7721 11.0404 2.95964C11.228 3.14718 11.3333 3.40153 11.3333 3.66675V8.00008" stroke="#1B1B1F" stroke-width="0.833333" stroke-linecap="round" stroke-linejoin="round"/>
<path d="M11.3333 5C11.3333 4.73478 11.4387 4.48043 11.6262 4.29289C11.8138 4.10536 12.0681 4 12.3333 4C12.5986 4 12.8529 4.10536 13.0404 4.29289C13.228 4.48043 13.3333 4.73478 13.3333 5V10.6667C13.3333 11.7275 12.9119 12.7449 12.1618 13.4951C11.4116 14.2452 10.3942 14.6667 9.33333 14.6667H8H8.13867C7.47622 14.6668 6.82412 14.5024 6.24092 14.1882C5.65772 13.874 5.16168 13.4199 4.79733 12.8667C4.75361 12.8001 4.71005 12.7334 4.66667 12.6667C4.45867 12.3473 3.72867 11.0747 2.476 8.848C2.3483 8.62102 2.31419 8.35318 2.38092 8.10143C2.44765 7.84969 2.60997 7.63392 2.83333 7.5C3.07125 7.35724 3.35005 7.29808 3.62544 7.3319C3.90083 7.36572 4.15703 7.49058 4.35333 7.68667L5.33333 8.66667" stroke="#1B1B1F" stroke-width="0.833333" stroke-linecap="round" stroke-linejoin="round"/>
</g>
<defs>
<clipPath id="clip0_44_116">
<rect width="16" height="16" fill="white"/>
</clipPath>
</defs>
</svg>
