<svg width="17" height="16" viewBox="0 0 17 16" fill="none" xmlns="http://www.w3.org/2000/svg">
<path d="M10.98 5.33374H10.988" stroke="#1B1B1F" stroke-linecap="round" stroke-linejoin="round"/>
<path d="M4.90798 2.1001H13.052C13.292 2.09999 13.5297 2.14718 13.7515 2.23896C13.9732 2.33073 14.1748 2.46531 14.3445 2.63499C14.5143 2.80467 14.6489 3.00614 14.7408 3.22787C14.8327 3.44961 14.88 3.68728 14.88 3.9273V12.0729C14.88 12.5575 14.6875 13.0223 14.3448 13.3649C14.0021 13.7076 13.5374 13.9001 13.0528 13.9001H4.90718C4.42258 13.9001 3.95782 13.7076 3.61515 13.3649C3.27249 13.0223 3.07998 12.5575 3.07998 12.0729V3.9273C3.07998 3.44269 3.27249 2.97794 3.61515 2.63527C3.95782 2.29261 4.42338 2.1001 4.90798 2.1001Z" stroke="#1B1B1F" stroke-linecap="round" stroke-linejoin="round"/>
<path d="M3.64638 10.0001L6.31358 7.33372C6.93198 6.73772 7.69438 6.73772 8.31358 7.33372L11.6464 10.6665" stroke="#1B1B1F" stroke-linecap="round" stroke-linejoin="round"/>
<path d="M10.3136 9.33381L10.98 8.66661C11.5992 8.07141 12.3608 8.07141 12.98 8.66661L14.3136 10.0002" stroke="#1B1B1F" stroke-linecap="round" stroke-linejoin="round"/>
</svg>
