<svg width="17" height="16" viewBox="0 0 17 16" fill="none" xmlns="http://www.w3.org/2000/svg">
<path d="M11.8136 6.8335H6.14639C5.61596 6.8335 5.10725 7.04421 4.73218 7.41928C4.35711 7.79436 4.14639 8.30306 4.14639 8.8335V11.8335C4.14639 12.3639 4.35711 12.8726 4.73218 13.2477C5.10725 13.6228 5.61596 13.8335 6.14639 13.8335H11.8136C12.344 13.8335 12.8527 13.6228 13.2278 13.2477C13.6029 12.8726 13.8136 12.3639 13.8136 11.8335V8.8335C13.8136 8.30306 13.6029 7.79436 13.2278 7.41928C12.8527 7.04421 12.344 6.8335 11.8136 6.8335Z" stroke="#1B1B1F" stroke-linecap="round" stroke-linejoin="round"/>
<path d="M8.97999 11.1663C9.09158 11.1698 9.20273 11.1508 9.30684 11.1105C9.41095 11.0701 9.5059 11.0093 9.58605 10.9316C9.66621 10.8539 9.72994 10.7609 9.77346 10.6581C9.81698 10.5553 9.83941 10.4448 9.83941 10.3331C9.83941 10.2215 9.81698 10.111 9.77346 10.0082C9.72994 9.90534 9.66621 9.81232 9.58605 9.73461C9.5059 9.6569 9.41095 9.59608 9.30684 9.55576C9.20273 9.51545 9.09158 9.49645 8.97999 9.49991C8.76348 9.50662 8.55808 9.59735 8.40731 9.75287C8.25653 9.90839 8.17221 10.1165 8.17221 10.3331C8.17221 10.5497 8.25653 10.7578 8.40731 10.9134C8.55808 11.0689 8.76348 11.1596 8.97999 11.1663Z" stroke="#1B1B1F" stroke-linecap="round" stroke-linejoin="round"/>
<mask id="mask0_44_107" style="mask-type:alpha" maskUnits="userSpaceOnUse" x="6" y="1" width="7" height="7">
<path d="M6.09918 7.64875V4.13995C6.09918 3.39595 6.41998 2.68155 6.99198 2.15595C7.58217 1.62232 8.35073 1.32894 9.14638 1.33355C9.95438 1.33355 10.7304 1.62955 11.3016 2.15515C11.8736 2.68155 12.1944 3.39515 12.1944 4.13995" fill="white"/>
</mask>
<g mask="url(#mask0_44_107)">
<path d="M5.09919 7.6487V8.6487H7.09919V7.6487H5.09919ZM11.1944 4.1399V5.1399H13.1944V4.1399H11.1944ZM7.09839 6.8079V4.1399H5.09839V6.8079H7.09839ZM7.09839 4.1399C7.09839 3.6887 7.29279 3.2383 7.66879 2.8919L6.31439 1.4199C5.54719 2.1263 5.09839 3.1031 5.09839 4.1399H7.09839ZM7.66879 2.8919C8.0746 2.52835 8.60157 2.32949 9.14639 2.3343V0.334296C8.09839 0.334296 7.07839 0.715896 6.31439 1.4199L7.66799 2.8911L7.66879 2.8919ZM9.14639 2.3343C9.71439 2.3343 10.2456 2.5423 10.624 2.8919L11.9792 1.4207C11.2043 0.717152 10.193 0.329534 9.14639 0.334296V2.3343ZM10.624 2.8919C11 3.2383 11.1944 3.6887 11.1944 4.1399H13.1944C13.1944 3.1031 12.7472 2.1271 11.9792 1.4207L10.624 2.8919Z" fill="#1B1B1F"/>
</g>
</svg>
