<svg width="16" height="16" viewBox="0 0 16 16" fill="none" xmlns="http://www.w3.org/2000/svg">
<g clip-path="url(#clip0_44_124)">
<path d="M4.36365 4.36353L7.38401 12.9403C7.40577 12.9856 7.43994 13.0238 7.48256 13.0504C7.52517 13.0771 7.57448 13.0911 7.62474 13.0908C7.67511 13.0911 7.72453 13.0771 7.76727 13.0505C7.81001 13.0238 7.84431 12.9856 7.86619 12.9403L9.45456 9.45443L12.936 8.00425C12.9818 7.98428 13.0208 7.95145 13.0483 7.90976C13.0758 7.86806 13.0906 7.81929 13.0909 7.76934C13.0906 7.7194 13.0758 7.67063 13.0483 7.62893C13.0208 7.58724 12.9818 7.55441 12.936 7.53443L4.36365 4.36353Z" fill="#030064" stroke="#030064" stroke-width="0.909091" stroke-linecap="round" stroke-linejoin="round"/>
<path d="M9.81818 9.81812L13.0909 13.0908Z" fill="#030064"/>
<path d="M9.81818 9.81812L13.0909 13.0908" stroke="#030064" stroke-width="0.909091" stroke-linecap="round" stroke-linejoin="round"/>
</g>
<defs>
<clipPath id="clip0_44_124">
<rect width="16" height="16" fill="white"/>
</clipPath>
</defs>
</svg>
