<svg width="14" height="14" viewBox="0 0 14 14" fill="none" xmlns="http://www.w3.org/2000/svg">
<g clip-path="url(#clip0_47_283)">
<path fill-rule="evenodd" clip-rule="evenodd" d="M0.650024 1.3999C0.650024 0.985689 0.985811 0.649902 1.40002 0.649902H12.6C13.0142 0.649902 13.35 0.985689 13.35 1.3999V4.66657C13.35 5.08078 13.0142 5.41657 12.6 5.41657C12.1858 5.41657 11.85 5.08078 11.85 4.66657V2.1499H7.75002V11.8499H10.2667C10.6809 11.8499 11.0167 12.1857 11.0167 12.5999C11.0167 13.0141 10.6809 13.3499 10.2667 13.3499H3.26669C2.85248 13.3499 2.51669 13.0141 2.51669 12.5999C2.51669 12.1857 2.85248 11.8499 3.26669 11.8499H6.25002V2.1499H2.15002V4.66657C2.15002 5.08078 1.81424 5.41657 1.40002 5.41657C0.985811 5.41657 0.650024 5.08078 0.650024 4.66657V1.3999Z" fill="#1B1B1F"/>
</g>
<defs>
<clipPath id="clip0_47_283">
<rect width="14" height="14" fill="white"/>
</clipPath>
</defs>
</svg>
